# xmcd
#
# Track frame offsets:
#	150
#	17175
#	35072
#	64497
#	84945
#	107200
#	125540
#	147975
#	167745
#
# Disc length: 3159 seconds
#
# Revision: 1
# Processed by: cddbd v1.5.1PL0 Copyright (c) Steve Scherf et al.
# Submitted via: CDex 1.50Beta5
#
DISCID=7f0c5509
DTITLE=JANGO - WHO’S FOOL,WHAT’S COOL!?
DYEAR=1996
DGENRE=Rock
TTITLE0=LIFE IS NOT GAME
TTITLE1=FUNK UP,FUN’N FUN
TTITLE2=PRAY FOR THE CHILDREN
TTITLE3=TREASURE HUNTING WILD BOYS
TTITLE4=SHAKE SHAKE
TTITLE5=PUT YOUR SHOES
TTITLE6=GET CLOSE TO ME
TTITLE7=GET ALL OVER THE WORLD
TTITLE8=GIVE YOU
EXTD=
EXTT0=
EXTT1=
EXTT2=
EXTT3=
EXTT4=
EXTT5=
EXTT6=
EXTT7=
EXTT8=
PLAYORDER=
